<svg xmlns="http://www.w3.org/2000/svg" width="134" height="24" viewBox="0 0 134 24">
  <g id="Group_45" data-name="Group 45" transform="translate(-62 -20)">
    <g id="surface1" transform="translate(59 16)">
      <path id="Path_293" data-name="Path 293" d="M4,4a1,1,0,0,0-.707,1.7L5.984,8.4,4.293,10.086A1,1,0,0,0,5.7,11.5l.875-.875,1.328,1.441a8.714,8.714,0,0,0-.781,2.43A8.949,8.949,0,0,0,8,20v1a2.943,2.943,0,0,0,.664,1.848L4,28a18.11,18.11,0,0,0,7.328-2.672A3.011,3.011,0,0,0,14,27h4a3.011,3.011,0,0,0,2.672-1.672A18.111,18.111,0,0,0,28,28l-4.66-5.152a2.951,2.951,0,0,0,.617-1.414A16.286,16.286,0,0,0,26,23V21.938c0-1.312,1-1.68,1-2.937a5.053,5.053,0,0,0-2.051-3.934,8.827,8.827,0,0,0-.867-2.992l1.34-1.449.875.875a1,1,0,0,0,1.41-1.414L26.016,8.4l2.691-2.7a1,1,0,0,0-1.41-1.41L24.605,6.984,22.914,5.293A1,1,0,1,0,21.5,6.7l.926.93L21.375,8.8a8.956,8.956,0,0,0-10.754,0L9.57,7.633l.93-.93a1,1,0,0,0-1.414-1.41L7.4,6.984,4.7,4.293A.985.985,0,0,0,4,4ZM15.969,9a6.951,6.951,0,0,1,5.969,3.289A13.06,13.06,0,0,0,16,11a13.016,13.016,0,0,0-5.894,1.269,7.013,7.013,0,0,1,5.07-3.223A6.8,6.8,0,0,1,15.969,9ZM9.078,15H22.922A7.044,7.044,0,0,1,23,16a6.947,6.947,0,0,1-.875,3.387L22,19.609V21a.982.982,0,0,1-1,1H19v2a.982.982,0,0,1-1,1H14a.982.982,0,0,1-1-1V22H11a.982.982,0,0,1-1-1V19.609l-.125-.223A6.97,6.97,0,0,1,9.078,15ZM13,16a2,2,0,1,0,2,2A2,2,0,0,0,13,16Zm6,0a2,2,0,1,0,2,2A2,2,0,0,0,19,16Zm-4,5v2h2V21Z" fill="#fff"/>
    </g>
    <text id="Piratalo.movie" transform="translate(97 38)" fill="#fff" font-size="16" font-family="Montserrat-Bold, Montserrat" font-weight="700"><tspan x="0" y="0">Piratalo</tspan><tspan y="0" font-size="10" font-family="Montserrat-Medium, Montserrat" font-weight="500">.movie</tspan></text>
  </g>
</svg>
